<svg id="Layer_1" data-name="Layer 1" xmlns="http://www.w3.org/2000/svg" viewBox="0 0 482.06 482.06"><defs><style>.cls-1{fill:#fff;}.cls-2{fill:#0975ce;}.cls-3,.cls-4{fill:none;stroke:#0975ce;stroke-miterlimit:10;}.cls-4{stroke-width:2px;}</style></defs><title>Propr_2_invert</title><circle class="cls-1" cx="241.03" cy="241.03" r="241.03"/><path class="cls-2" d="M373,340.55,304.8,340a45.18,45.18,0,1,0-.16,18.65l68.28.59A45.87,45.87,0,0,1,373,340.55ZM241.73,367.46a26.47,26.47,0,1,1,37.43.32A26.5,26.5,0,0,1,241.73,367.46Z" transform="translate(-158.97 -56.01)"/><path class="cls-2" d="M455.18,374.86l-.24-.24a45.12,45.12,0,1,0-75.58-.66l-.53.52A45.87,45.87,0,0,0,392,387.71l.47-.46a45,45,0,0,0,49.21.43l.28.29A45.87,45.87,0,0,0,455.18,374.86Zm-38,1.29a26.47,26.47,0,1,1,26.7-26.24A26.5,26.5,0,0,1,417.13,376.15Z" transform="translate(-158.97 -56.01)"/><circle class="cls-3" cx="417.55" cy="350.06" r="45.23" transform="translate(-95.12 708.53) rotate(-89.5)"/><path class="cls-2" d="M333.43,275.78a45.08,45.08,0,0,0,76-22.59h68.28a45.87,45.87,0,0,1-.08-18.65h-68.2a45.11,45.11,0,1,0-76,41.24ZM384,225.16a26.47,26.47,0,1,1-37.43,0A26.5,26.5,0,0,1,384,225.16Z" transform="translate(-158.97 -56.01)"/><path class="cls-2" d="M546.32,207.57l-.47.46a45,45,0,0,0-50,.07l-.27-.28a45.88,45.88,0,0,0-13,13.38l.24.24a45.12,45.12,0,1,0,76.08-.11l.53-.52A45.87,45.87,0,0,0,546.32,207.57Zm-25.63,64.5a26.47,26.47,0,1,1,26.7-26.24A26.5,26.5,0,0,1,520.69,272.07Z" transform="translate(-158.97 -56.01)"/><ellipse class="cls-4" cx="520.75" cy="245.22" rx="45.23" ry="45.25" transform="translate(112.03 707.8) rotate(-89.5)"/><path class="cls-2" d="M583.08,255h.19l9.28.08-.16,18.26,28.08-27.14-27.6-27.63-.16,18.26-9.28-.08-.19,0V237Z" transform="translate(-158.97 -56.01)"/><path class="cls-2" d="M601.37,246.05a9.33,9.33,0,0,0-9.21-9.44l-26.82-.33a9.32,9.32,0,1,0-.23,18.65l26.82.33A9.32,9.32,0,0,0,601.37,246.05Z" transform="translate(-158.97 -56.01)"/><path class="cls-2" d="M477.54,295.6a9.33,9.33,0,0,0-13.19-.11L445.23,314.3a9.32,9.32,0,1,0,13.08,13.29l19.12-18.81A9.32,9.32,0,0,0,477.54,295.6Z" transform="translate(-158.97 -56.01)"/><path class="cls-2" d="M468.67,317l.14-.12,6.65-6.47,12.74,13.08.84-39-39.05-.2,12.74,13.08-6.65,6.47-.15.12.17.18Z" transform="translate(-158.97 -56.01)"/><path class="cls-2" d="M330,243.35a9.33,9.33,0,0,0-9.21-9.44L294,233.59a9.32,9.32,0,1,0-.23,18.65l26.82.33A9.32,9.32,0,0,0,330,243.35Z" transform="translate(-158.97 -56.01)"/><path class="cls-2" d="M226,349.35a9.33,9.33,0,0,0-9.21-9.44L190,339.59a9.32,9.32,0,1,0-.23,18.65l26.82.33A9.32,9.32,0,0,0,226,349.35Z" transform="translate(-158.97 -56.01)"/></svg>